<?xml version="1.0" standalone="no"?><svg xmlns="http://www.w3.org/2000/svg" viewBox="0 0 1440 320"><path fill="#f3f4f5" fill-opacity="1" d="M0,128L14.1,106.7C28.2,85,56,43,85,42.7C112.9,43,141,85,169,117.3C197.6,149,226,171,254,154.7C282.4,139,311,85,339,58.7C367.1,32,395,32,424,48C451.8,64,480,96,508,122.7C536.5,149,565,171,593,181.3C621.2,192,649,192,678,160C705.9,128,734,64,762,48C790.6,32,819,64,847,90.7C875.3,117,904,139,932,149.3C960,160,988,160,1016,138.7C1044.7,117,1073,75,1101,64C1129.4,53,1158,75,1186,106.7C1214.1,139,1242,181,1271,197.3C1298.8,213,1327,203,1355,213.3C1383.5,224,1412,256,1426,272L1440,288L1440,0L1425.9,0C1411.8,0,1384,0,1355,0C1327.1,0,1299,0,1271,0C1242.4,0,1214,0,1186,0C1157.6,0,1129,0,1101,0C1072.9,0,1045,0,1016,0C988.2,0,960,0,932,0C903.5,0,875,0,847,0C818.8,0,791,0,762,0C734.1,0,706,0,678,0C649.4,0,621,0,593,0C564.7,0,536,0,508,0C480,0,452,0,424,0C395.3,0,367,0,339,0C310.6,0,282,0,254,0C225.9,0,198,0,169,0C141.2,0,113,0,85,0C56.5,0,28,0,14,0L0,0Z"></path></svg>